<svg width="30" height="23" viewBox="0 0 30 23" fill="none" xmlns="http://www.w3.org/2000/svg">
<path d="M5 2.5V15H11.25V10C11.25 9.33696 11.5134 8.70107 11.9822 8.23223C12.4511 7.76339 13.087 7.5 13.75 7.5H20C20.663 7.5 21.2989 7.76339 21.7678 8.23223C22.2366 8.70107 22.5 9.33696 22.5 10V15H25V2.5H5ZM0 20V17.5H5C4.33696 17.5 3.70107 17.2366 3.23223 16.7678C2.76339 16.2989 2.5 15.663 2.5 15V2.5C2.5 1.83696 2.76339 1.20107 3.23223 0.732233C3.70107 0.263392 4.33696 0 5 0H25C25.663 0 26.2989 0.263392 26.7678 0.732233C27.2366 1.20107 27.5 1.83696 27.5 2.5V15C27.5 15.663 27.2366 16.2989 26.7678 16.7678C26.2989 17.2366 25.663 17.5 25 17.5H30V20H22.5C22.5 20.663 22.2366 21.2989 21.7678 21.7678C21.2989 22.2366 20.663 22.5 20 22.5H13.75C13.087 22.5 12.4511 22.2366 11.9822 21.7678C11.5134 21.2989 11.25 20.663 11.25 20H0ZM14.375 20C14.2092 20 14.0503 20.0658 13.9331 20.1831C13.8158 20.3003 13.75 20.4592 13.75 20.625C13.75 20.7908 13.8158 20.9497 13.9331 21.0669C14.0503 21.1842 14.2092 21.25 14.375 21.25C14.5408 21.25 14.6997 21.1842 14.8169 21.0669C14.9342 20.9497 15 20.7908 15 20.625C15 20.4592 14.9342 20.3003 14.8169 20.1831C14.6997 20.0658 14.5408 20 14.375 20ZM19.375 20C19.2092 20 19.0503 20.0658 18.9331 20.1831C18.8158 20.3003 18.75 20.4592 18.75 20.625C18.75 20.7908 18.8158 20.9497 18.9331 21.0669C19.0503 21.1842 19.2092 21.25 19.375 21.25C19.5408 21.25 19.6997 21.1842 19.8169 21.0669C19.9342 20.9497 20 20.7908 20 20.625C20 20.4592 19.9342 20.3003 19.8169 20.1831C19.6997 20.0658 19.5408 20 19.375 20ZM16.25 20V21.25H17.5V20H16.25ZM13.75 10V18.75H20V10H13.75Z" fill="#8A51A3"/>
</svg>
