<svg width="24" height="24" viewBox="0 0 24 24" fill="none" xmlns="http://www.w3.org/2000/svg">
<path d="M6.342 0C4.66065 0.00211691 3.04876 0.67097 1.85987 1.85987C0.67097 3.04876 0.00211691 4.66065 0 6.342L0 17.658C0.00211691 19.3394 0.67097 20.9512 1.85987 22.1401C3.04876 23.329 4.66065 23.9979 6.342 24H17.659C19.3402 23.9976 20.9518 23.3286 22.1405 22.1398C23.3292 20.9509 23.9979 19.3392 24 17.658V6.342C23.9979 4.66082 23.3292 3.04909 22.1405 1.86022C20.9518 0.671351 19.3402 0.00238144 17.659 0L6.342 0ZM6.342 2.15H17.659C18.7704 2.15132 19.8359 2.5934 20.6217 3.37927C21.4076 4.16514 21.8497 5.23062 21.851 6.342V17.658C21.8497 18.7694 21.4076 19.8349 20.6217 20.6207C19.8359 21.4066 18.7704 21.8487 17.659 21.85H6.342C5.23045 21.8489 4.16471 21.407 3.37862 20.6211C2.59254 19.8352 2.15032 18.7696 2.149 17.658V6.341C2.15059 5.22962 2.59292 4.16424 3.37898 3.37856C4.16503 2.59288 5.23062 2.15106 6.342 2.15ZM7.06 5.638C6.297 5.638 5.676 6.259 5.676 7.022V17.026C5.676 17.789 6.296 18.41 7.06 18.41H17.065C17.827 18.41 18.448 17.789 18.448 17.026V7.022C18.448 6.652 18.304 6.305 18.042 6.043C17.9137 5.91445 17.7612 5.8125 17.5934 5.743C17.4255 5.6735 17.2456 5.63782 17.064 5.638H7.06ZM7.825 7.788H16.299V16.261H7.825V7.788Z" fill="#8B51A4"/>
</svg>
