<svg width="36" height="36" viewBox="0 0 36 36" fill="none" xmlns="http://www.w3.org/2000/svg">
<path d="M18 2.77539C17.595 2.77539 17.175 2.88039 16.83 3.07539L5.67 9.52539C4.95 9.94539 4.5 10.7254 4.5 11.5654V24.4354C4.5 25.2754 4.95 26.0554 5.67 26.4754L8.595 28.1554C10.02 28.8454 10.5 28.8604 11.16 28.8604C13.26 28.8604 14.475 27.5854 14.475 25.3654V12.6604C14.475 12.4804 14.325 12.3304 14.145 12.3304H12.75C12.555 12.3304 12.405 12.4804 12.405 12.6604V25.3654C12.405 26.3554 11.385 27.3304 9.75 26.5054L6.675 24.7504C6.6245 24.7147 6.5832 24.6676 6.55451 24.6128C6.52582 24.558 6.51057 24.4972 6.51 24.4354V11.5654C6.51 11.4304 6.57 11.3104 6.675 11.2504L17.835 4.81539C17.925 4.75539 18.075 4.75539 18.165 4.81539L29.325 11.2504C29.43 11.3104 29.49 11.4304 29.49 11.5654V24.4354C29.49 24.5554 29.43 24.6754 29.325 24.7504L18.165 31.1854C18.075 31.2454 17.925 31.2454 17.82 31.1854L15 29.4754C14.88 29.4304 14.76 29.4154 14.685 29.4604C13.89 29.9104 13.74 30.0004 13.005 30.2254C12.825 30.2854 12.54 30.3904 13.11 30.7054L16.83 32.9104C17.19 33.1204 17.58 33.2254 18 33.2254C18.42 33.2254 18.81 33.1204 19.17 32.9104L30.33 26.4754C31.05 26.0554 31.5 25.2754 31.5 24.4354V11.5654C31.5 10.7254 31.05 9.94539 30.33 9.52539L19.17 3.07539C18.825 2.88039 18.42 2.77539 18 2.77539ZM21 12.0004C17.82 12.0004 15.915 13.3354 15.915 15.5854C15.915 18.0004 17.805 18.7054 20.865 19.0054C24.51 19.3654 24.795 19.9054 24.795 20.6254C24.795 21.8704 23.79 22.3954 21.45 22.3954C18.48 22.3954 17.85 21.6604 17.625 20.1904C17.6092 20.1144 17.5678 20.0462 17.5078 19.997C17.4477 19.9479 17.3726 19.9208 17.295 19.9204H15.855C15.675 19.9204 15.54 20.0554 15.54 20.2504C15.54 22.1104 16.56 24.3604 21.45 24.3604C24.975 24.3604 27 22.9654 27 20.5354C27 18.1204 25.38 17.4904 21.945 17.0254C18.48 16.5754 18.135 16.3354 18.135 15.5254C18.135 14.8504 18.435 13.9504 21 13.9504C23.25 13.9504 24.135 14.4454 24.48 15.9904C24.51 16.1404 24.645 16.2454 24.795 16.2454H26.25C26.325 16.2454 26.415 16.2154 26.475 16.1404C26.535 16.0804 26.58 15.9904 26.55 15.9004C26.34 13.2304 24.57 12.0004 21 12.0004Z" fill="#1B702F"/>
</svg>
