<svg width="37" height="37" viewBox="0 0 37 37" fill="none" xmlns="http://www.w3.org/2000/svg">
<path d="M18.5 26.1318C28.0737 26.1318 35.8438 23.1718 35.8438 19.518C35.8438 15.8643 28.0737 12.9043 18.5 12.9043C8.92625 12.9043 1.15625 15.8643 1.15625 19.518C1.15625 23.1718 8.92625 26.1549 18.5 26.1549V26.1318Z" stroke="#8AADF4" stroke-linecap="round" stroke-linejoin="round"/>
<path d="M12.7641 22.8255C17.551 31.1505 24.0029 36.3768 27.171 34.5499C30.3391 32.6999 29.021 24.5137 24.2341 16.2118C19.4472 7.9099 12.9954 2.68365 9.82725 4.51053C6.65912 6.3374 7.97725 14.5468 12.7641 22.8255Z" stroke="#8AADF4" stroke-linecap="round" stroke-linejoin="round"/>
<path d="M12.7641 16.211C7.97725 24.5129 6.65912 32.7222 9.82725 34.5491C12.9954 36.376 19.4472 31.1266 24.2341 22.8247C29.021 14.546 30.3391 6.3366 27.171 4.50973C24.0029 2.65973 17.551 7.9091 12.7641 16.211Z" stroke="#8AADF4" stroke-linecap="round" stroke-linejoin="round"/>
<path d="M19.6562 19.5176C19.6562 19.8242 19.5344 20.1183 19.3176 20.3352C19.1008 20.552 18.8067 20.6738 18.5 20.6738C18.1933 20.6738 17.8992 20.552 17.6824 20.3352C17.4656 20.1183 17.3438 19.8242 17.3438 19.5176C17.3438 19.2109 17.4656 18.9168 17.6824 18.7C17.8992 18.4831 18.1933 18.3613 18.5 18.3613C18.8067 18.3613 19.1008 18.4831 19.3176 18.7C19.5344 18.9168 19.6562 19.2109 19.6562 19.5176Z" stroke="#8AADF4" stroke-linecap="round" stroke-linejoin="round"/>
</svg>
